<svg width="1627" height="1591" xmlns="http://www.w3.org/2000/svg" xmlns:xlink="http://www.w3.org/1999/xlink" xml:space="preserve" overflow="hidden"><g transform="translate(-673 -242)"><g><path d="M825.5 248C909.171 248 977 314.709 977 397 977 479.29 909.171 546 825.5 546 741.829 546 674 479.29 674 397 674 314.709 741.829 248 825.5 248Z" fill="#46B1E1" fill-rule="evenodd" fill-opacity="1"/><path d="M829 578C895.827 578 950 631.502 950 697.5 950 763.498 895.827 817 829 817 762.174 817 708 763.498 708 697.5 708 631.502 762.174 578 829 578Z" fill="#BFBFBF" fill-rule="evenodd" fill-opacity="1"/><path d="M886 890C936.258 890 977 930.07 977 979.5 977 1028.93 936.258 1069 886 1069 835.742 1069 795 1028.93 795 979.5 795 930.07 835.742 890 886 890Z" fill="#46B1E1" fill-rule="evenodd" fill-opacity="1"/><path d="M967.5 1162C1000.91 1162 1028 1188.64 1028 1221.5 1028 1254.36 1000.91 1281 967.5 1281 934.087 1281 907 1254.36 907 1221.5 907 1188.64 934.087 1162 967.5 1162Z" fill="#BFBFBF" fill-rule="evenodd" fill-opacity="1"/><path d="M1057.5 1400C1074.34 1400 1088 1413.21 1088 1429.5 1088 1445.79 1074.34 1459 1057.5 1459 1040.66 1459 1027 1445.79 1027 1429.5 1027 1413.21 1040.66 1400 1057.5 1400Z" fill="#46B1E1" fill-rule="evenodd" fill-opacity="1"/><path d="M1160.5 282C1227.6 282 1282 335.502 1282 401.5 1282 467.498 1227.6 521 1160.5 521 1093.4 521 1039 467.498 1039 401.5 1039 335.502 1093.4 282 1160.5 282Z" fill="#000000" fill-rule="evenodd" fill-opacity="1"/><path d="M1155.5 569C1239.17 569 1307 635.933 1307 718.5 1307 801.067 1239.17 868 1155.5 868 1071.83 868 1004 801.067 1004 718.5 1004 635.933 1071.83 569 1155.5 569Z" fill="#46B1E1" fill-rule="evenodd" fill-opacity="1"/><path d="M1159 899C1225.83 899 1280 952.502 1280 1018.5 1280 1084.5 1225.83 1138 1159 1138 1092.17 1138 1038 1084.5 1038 1018.5 1038 952.502 1092.17 899 1159 899Z" fill="#000000" fill-rule="evenodd" fill-opacity="1"/><path d="M1216 1211C1266.26 1211 1307 1251.07 1307 1300.5 1307 1349.93 1266.26 1390 1216 1390 1165.74 1390 1125 1349.93 1125 1300.5 1125 1251.07 1165.74 1211 1216 1211Z" fill="#46B1E1" fill-rule="evenodd" fill-opacity="1"/><path d="M1297.5 1483C1330.91 1483 1358 1509.64 1358 1542.5 1358 1575.36 1330.91 1602 1297.5 1602 1264.09 1602 1237 1575.36 1237 1542.5 1237 1509.64 1264.09 1483 1297.5 1483Z" fill="#000000" fill-rule="evenodd" fill-opacity="1"/><path d="M1451 367C1501.26 367 1542 407.071 1542 456.5 1542 505.929 1501.26 546 1451 546 1400.74 546 1360 505.929 1360 456.5 1360 407.071 1400.74 367 1451 367Z" fill="#46B1E1" fill-rule="evenodd" fill-opacity="1"/><path d="M1490 603C1556.83 603 1611 656.502 1611 722.5 1611 788.498 1556.83 842 1490 842 1423.17 842 1369 788.498 1369 722.5 1369 656.502 1423.17 603 1490 603Z" fill="#BFBFBF" fill-rule="evenodd" fill-opacity="1"/><path d="M1485.5 890C1569.17 890 1637 956.934 1637 1039.5 1637 1122.07 1569.17 1189 1485.5 1189 1401.83 1189 1334 1122.07 1334 1039.5 1334 956.934 1401.83 890 1485.5 890Z" fill="#46B1E1" fill-rule="evenodd" fill-opacity="1"/><path d="M1489 1220C1555.83 1220 1610 1273.5 1610 1339.5 1610 1405.5 1555.83 1459 1489 1459 1422.17 1459 1368 1405.5 1368 1339.5 1368 1273.5 1422.17 1220 1489 1220Z" fill="#BFBFBF" fill-rule="evenodd" fill-opacity="1"/><path d="M1546 1532C1596.26 1532 1637 1572.07 1637 1621.5 1637 1670.93 1596.26 1711 1546 1711 1495.74 1711 1455 1670.93 1455 1621.5 1455 1572.07 1495.74 1532 1546 1532Z" fill="#46B1E1" fill-rule="evenodd" fill-opacity="1"/><path d="M1715 496C1748.69 496 1776 522.863 1776 556 1776 589.137 1748.69 616 1715 616 1681.31 616 1654 589.137 1654 556 1654 522.863 1681.31 496 1715 496Z" fill="#000000" fill-rule="evenodd" fill-opacity="1"/><path d="M1781 688C1831.26 688 1872 728.294 1872 778 1872 827.706 1831.26 868 1781 868 1730.74 868 1690 827.706 1690 778 1690 728.294 1730.74 688 1781 688Z" fill="#46B1E1" fill-rule="evenodd" fill-opacity="1"/><path d="M1820 924C1886.83 924 1941 977.502 1941 1043.5 1941 1109.5 1886.83 1163 1820 1163 1753.17 1163 1699 1109.5 1699 1043.5 1699 977.502 1753.17 924 1820 924Z" fill="#000000" fill-rule="evenodd" fill-opacity="1"/><path d="M1815.5 1211C1899.17 1211 1967 1277.93 1967 1360.5 1967 1443.07 1899.17 1510 1815.5 1510 1731.83 1510 1664 1443.07 1664 1360.5 1664 1277.93 1731.83 1211 1815.5 1211Z" fill="#46B1E1" fill-rule="evenodd" fill-opacity="1"/><path d="M1819 1541C1885.83 1541 1940 1594.5 1940 1660.5 1940 1726.5 1885.83 1780 1819 1780 1752.17 1780 1698 1726.5 1698 1660.5 1698 1594.5 1752.17 1541 1819 1541Z" fill="#000000" fill-rule="evenodd" fill-opacity="1"/><path d="M1941.5 616C1958.34 616 1972 629.208 1972 645.5 1972 661.792 1958.34 675 1941.5 675 1924.66 675 1911 661.792 1911 645.5 1911 629.208 1924.66 616 1941.5 616Z" fill="#46B1E1" fill-rule="evenodd" fill-opacity="1"/><path d="M2046.5 817C2079.91 817 2107 843.863 2107 877 2107 910.137 2079.91 937 2046.5 937 2013.09 937 1986 910.137 1986 877 1986 843.863 2013.09 817 2046.5 817Z" fill="#BFBFBF" fill-rule="evenodd" fill-opacity="1"/><path d="M2112 1009C2162.26 1009 2203 1049.29 2203 1099 2203 1148.71 2162.26 1189 2112 1189 2061.74 1189 2021 1148.71 2021 1099 2021 1049.29 2061.74 1009 2112 1009Z" fill="#46B1E1" fill-rule="evenodd" fill-opacity="1"/><path d="M2151.5 1246C2218.6 1246 2273 1299.5 2273 1365.5 2273 1431.5 2218.6 1485 2151.5 1485 2084.4 1485 2030 1431.5 2030 1365.5 2030 1299.5 2084.4 1246 2151.5 1246Z" fill="#BFBFBF" fill-rule="evenodd" fill-opacity="1"/><path d="M2146.5 1532C2230.17 1532 2298 1598.93 2298 1681.5 2298 1764.07 2230.17 1831 2146.5 1831 2062.83 1831 1995 1764.07 1995 1681.5 1995 1598.93 2062.83 1532 2146.5 1532Z" fill="#46B1E1" fill-rule="evenodd" fill-opacity="1"/><path d="M2274 246 2274 601 1389 246Z" fill="#46B1E1" fill-rule="evenodd" fill-opacity="1"/><path d="M707 1831 707 1476 1592 1831Z" fill="#46B1E1" fill-rule="evenodd" fill-opacity="1"/></g></g></svg>